<svg xmlns="http://www.w3.org/2000/svg" width="256" height="256" viewBox="0 0 100 100"><rect width="100" height="100" rx="20" fill="#7d6ee7"></rect><path fill="#fff" d="M45.08 31.04L45.08 31.04Q45.08 32.16 44.40 32.96Q43.72 33.76 42.84 34.16L42.84 34.16Q40.76 32.72 37.96 31.44Q35.16 30.16 30.68 30.16L30.68 30.16Q27.00 30.16 23.88 31.44Q20.76 32.72 18.44 35.20Q16.12 37.68 14.80 41.44Q13.48 45.20 13.48 50.08L13.48 50.08Q13.48 55.04 14.76 58.72Q16.04 62.40 18.32 64.88Q20.60 67.36 23.80 68.60Q27.00 69.84 30.92 69.84L30.92 69.84Q35.08 69.84 38.16 68.68Q41.24 67.52 43.32 65.92L43.32 65.92Q44.12 66.24 44.84 67.08Q45.56 67.92 45.56 69.04L45.56 69.04Q45.56 70.72 43.64 72.08L43.64 72.08Q41.80 73.36 38.60 74.36Q35.40 75.36 30.44 75.36L30.44 75.36Q25.40 75.36 21.08 73.76Q16.76 72.16 13.60 69Q10.44 65.84 8.60 61.12Q6.76 56.40 6.76 50.08L6.76 50.08Q6.76 43.76 8.64 39.00Q10.52 34.24 13.72 31.04Q16.92 27.84 21.20 26.24Q25.48 24.64 30.20 24.64L30.20 24.64Q33.48 24.64 36.24 25.20Q39.00 25.76 40.96 26.68Q42.92 27.60 44.00 28.76Q45.08 29.92 45.08 31.04ZM77.24 73.68L77.24 73.68Q76.84 74.08 75.72 74.40Q74.60 74.72 73.24 74.72L73.24 74.72Q71.72 74.72 70.52 74.28Q69.32 73.84 68.92 72.96L68.92 72.96Q67.88 70.88 66.48 67.60Q65.08 64.32 63.52 60.28Q61.96 56.24 60.32 51.76Q58.68 47.28 57.16 42.88Q55.64 38.48 54.28 34.36Q52.92 30.24 51.96 26.96L51.96 26.96Q52.44 26.32 53.40 25.76Q54.36 25.20 55.56 25.20L55.56 25.20Q57.08 25.20 57.80 25.92Q58.52 26.64 59 28.08L59 28.08Q62.60 38.56 65.88 48.32Q69.16 58.08 73.08 68.16L73.08 68.16L73.40 68.16Q75.16 63.60 77.04 58.44Q78.92 53.28 80.72 47.80Q82.52 42.32 84.24 36.72Q85.96 31.12 87.32 25.76L87.32 25.76Q88.36 25.20 90.04 25.20L90.04 25.20Q91.48 25.20 92.36 25.92Q93.24 26.64 93.24 28.08L93.24 28.08Q93.24 29.28 92.32 32.60Q91.40 35.92 89.96 40.32Q88.52 44.72 86.72 49.76Q84.92 54.80 83.16 59.44Q81.40 64.08 79.80 67.92Q78.20 71.76 77.24 73.68Z"></path></svg>